<?xml version="1.0" encoding="utf-8"?>
<svg width="260" height="260" preserveAspectRatio="xMidYMid" version="1.2" viewBox="0 0 260 260" baseProfile="tiny-ps" xmlns="http://www.w3.org/2000/svg">
  <title>bimi</title>
  <g transform="matrix(.1 0 0 -.1 0 260)" fill="#b3af9e">
    <path d="m0 1300v-1300h2600v2600h-2600zm1414 1159c51-53 67-111 46-176-43-134-228-165-312-52-45 60-42 165 5 218 46 50 77 62 149 59 64-3 69-5 112-49zm-471-956c45-37 87-71 92-75 6-4 28-22 50-41s50-42 63-53c13-10 42-36 65-56 73-65 79-66 129-24 71 59 190 157 263 216 38 30 79 65 91 78 29 30 38 28 71-15 15-20 38-48 51-61 12-14 22-29 22-34 0-10-73-79-121-113-25-18-141-113-206-168-44-38-63-60-57-69 3-5 63-54 132-109 70-55 136-107 146-116 11-9 45-36 75-59 143-112 165-130 167-139 5-14-15-37-62-70-23-17-66-50-95-74-30-24-67-53-82-65-16-11-90-70-165-130-162-130-146-117-201-161-80-65-89-65-145-6-17 17-35 31-42 31-6 0-18 7-25 16-8 9-70 61-139 116-69 54-141 112-160 128s-52 41-72 57c-121 93-145 112-162 132-20 22-20 22 9 49 16 15 42 36 57 47 14 11 50 39 80 63 61 50 68 55 203 160 54 42 115 91 134 108l35 31-29 24c-16 13-52 44-81 69-28 25-80 68-113 95-34 28-72 58-84 69-12 10-37 30-54 43-18 14-33 31-33 37 0 10 99 135 108 136 1 0 40-30 85-67z" />
    <path d="m1214 915c-43-36-101-82-127-103-26-20-67-53-91-72-23-19-56-45-72-57l-29-22 25-22c96-81 206-170 229-184 9-5 41-31 71-56s60-49 67-52c6-4 43 19 83 53 39 33 75 60 79 60 3 0 22 15 41 33 19 19 42 38 52 43 9 5 39 28 66 52s58 50 68 57c18 13 18 15-5 31-13 9-46 36-72 58-26 23-71 59-100 81-28 22-65 51-83 66-17 14-52 42-77 62l-46 37z" />
  </g>
</svg>